<?xml version="1.0"?>
<svg xmlns="http://www.w3.org/2000/svg" xmlns:xlink="http://www.w3.org/1999/xlink" version="1.1" id="Capa_1" x="0px" y="0px" viewBox="0 0 335.344 335.344" style="enable-background:new 0 0 335.344 335.344;" xml:space="preserve" width="512px" height="512px"><g><g>
	<g>
		<path d="M135.606,63.344C135.244,28.309,106.791,0,71.672,0c-35.346,0-64,28.656-64,64c0,35.348,28.654,64,64,64    c2.522,0,4.978-0.226,7.404-0.558c11.465,25.766,36.084,44.351,65.469,47.141c9.742,17.278,27.1,29.641,47.614,32.211v112.55    h-56.313v16h127.826v-16h-56V206.797c20.537-2.558,38.194-14.926,47.943-32.215c40.594-3.851,72.057-37.636,72.057-79.238v-32    H135.606z M73.893,111.778c-0.75,0.035-1.461,0.222-2.221,0.222c-26.466,0-48-21.531-48-48s21.534-48,48-48    c26.24,0,47.572,21.183,47.934,47.344H71.672v32C71.672,100.996,72.774,106.465,73.893,111.778z M254.104,158.652l-8.318,0.793    l-4.103,7.278c-8.566,15.187-24.508,24.621-41.602,24.621c-17.094,0-33.035-9.434-41.6-24.621l-4.106-7.278l-8.318-0.793    c-21.332-2.023-39.156-14.152-49.199-31.309h206.446C293.26,144.5,275.436,156.629,254.104,158.652z M312.08,95.344    c0,5.554-0.942,10.855-2.279,16H90.359c-1.338-5.145-2.279-10.446-2.279-16v-16h224V95.344z" data-original="#000000" class="active-path" data-old_color="#000000" fill="#FFFFFF"/>
	</g>
</g></g> </svg>
