<?xml version="1.0"?>
<svg xmlns="http://www.w3.org/2000/svg" xmlns:xlink="http://www.w3.org/1999/xlink" version="1.1" id="Capa_1" x="0px" y="0px" viewBox="0 0 384 384" style="enable-background:new 0 0 384 384;" xml:space="preserve" width="512px" height="512px"><g><g>
	<g>
		<path d="M199.958,259.598L352.042,80h-84.625c-0.572-8.251-3.278-15.885-7.778-22.261l46.426-46.426L294.751,0l-46.504,46.503    c-7.009-4.715-15.443-7.474-24.526-7.474c-23.262,0-42.11,18.11-43.694,40.97H31.958l152.083,180.173V368h-56v16h55.916h16h56v-16    h-56V259.598z M223.722,55.03c14.402,0,26.159,10.97,27.694,24.97H196.03C197.562,66,209.32,55.03,223.722,55.03z M248.386,96    c-4.698,8.89-13.93,15.03-24.664,15.03c-10.734,0-19.968-6.14-24.666-15.03H248.386z M198.432,118.946    c7.164,5.054,15.855,8.083,25.29,8.083c19.754,0,36.27-13.106,41.832-31.03h51.973l-40.646,48H173.378L198.432,118.946z     M66.389,96H181.89c1.278,4.114,2.951,8.054,5.306,11.554L150.75,144h-43.866L66.389,96z M191.722,244.565L120.382,160h142.95    L191.722,244.565z" data-original="#000000" class="active-path" data-old_color="#000000" fill="#FFFFFF"/>
	</g>
</g></g> </svg>
