<?xml version="1.0"?>
<svg xmlns="http://www.w3.org/2000/svg" xmlns:xlink="http://www.w3.org/1999/xlink" version="1.1" id="Capa_1" x="0px" y="0px" viewBox="0 0 448 448" style="enable-background:new 0 0 448 448;" xml:space="preserve" width="512px" height="512px"><g><g>
	<g>
		<path d="M346.671,0c-42.964,0.071-79.189,32.044-84.597,74.667H26.671C20.78,74.662,16,79.433,15.996,85.324    c-0.002,2.633,0.97,5.175,2.729,7.134l157.28,175.424v158.784h-64V448h149.333v-21.333h-64V267.872l100.853-112.48    c14.208,9.95,31.135,15.283,48.48,15.275c47.128,0,85.333-38.205,85.333-85.333S393.799,0,346.671,0z M186.671,247.808    l-88.747-98.976h177.472L186.671,247.808z M293.338,128.757v-1.259H78.799L50.564,96h221.44h50.752L293.338,128.757z     M346.671,149.333c-12.091,0.018-23.935-3.424-34.133-9.92l42.091-46.933c3.947-4.373,3.602-11.118-0.772-15.065    c-1.97-1.778-4.532-2.758-7.186-2.748h-63.115c5.891-34.852,38.92-58.329,73.772-52.438C392.18,28.12,415.657,61.148,409.766,96    C404.562,126.79,377.898,149.329,346.671,149.333z" data-original="#000000" class="active-path" data-old_color="#000000" fill="#FFFFFF"/>
	</g>
</g></g> </svg>
