<?xml version="1.0"?>
<svg xmlns="http://www.w3.org/2000/svg" xmlns:xlink="http://www.w3.org/1999/xlink" version="1.1" id="Capa_1" x="0px" y="0px" viewBox="0 0 405.672 405.672" style="enable-background:new 0 0 405.672 405.672;" xml:space="preserve" width="512px" height="512px"><g><g>
	<g>
		<path d="M262.7,89.906l79.031-78.562L330.45,0l-81.937,81.438l-10.69,36.234h-45.916c-0.185-35.187-28.734-63.667-63.966-63.667    c-35.346,0-64,28.654-64,64c0,35.146,28.346,63.62,63.417,63.942v223.726h159.83v-288h-32.68L262.7,89.906z M127.356,117.672    v48.274c-26.192-0.322-47.417-21.673-47.417-47.942c0-26.468,21.534-48,48-48c26.354,0,47.782,21.357,47.966,47.667H127.356z     M143.076,133.672h90.027l-37.764,128h-52.263V133.672z M271.358,389.671l-128.27,0.27v-112l47.531-0.27l-22.934,77.734    l15.344,4.531l24.273-82.266h64.056V389.671z M271.356,133.672v128h-59.335l37.766-128H271.356z" data-original="#000000" class="active-path" data-old_color="#000000" fill="#FFFFFF"/>
	</g>
</g></g> </svg>
