<?xml version="1.0"?>
<svg xmlns="http://www.w3.org/2000/svg" xmlns:xlink="http://www.w3.org/1999/xlink" version="1.1" id="Capa_1" x="0px" y="0px" viewBox="0 0 359.594 359.594" style="enable-background:new 0 0 359.594 359.594;" xml:space="preserve" width="512px" height="512px"><g><g>
	<g>
		<path d="M254.091,111.552c0-13.755,1.543-26.687,4.253-39.552h-34.969l9.484-26.078l92.203-30.734L320,0l-99.797,33.266    l-14.088,38.734L162.532,72c0-35.346-28.654-64.406-64-64.406c-35.346,0-64,28.654-64,64c0,35.346,28.654,64,64,64    c0.134,0,0.258-0.038,0.392-0.039c-3.19,11.072-7.532,21.893-10.849,32.138c-3.526,9.994-5.543,20.7-5.543,31.901    c0,47.556,39,94.561,88,94.561V344h-56v15.594h128V344h-56v-49.846c47.997,0,88-47.005,88-94.561    c0-11.201-2.017-21.906-5.543-31.9C263.306,150.14,254.091,130.998,254.091,111.552z M217.465,87.593h22.053    c-0.948,8.041-1.426,16.052-1.426,23.959c0,14.22,3.942,27.682,8.254,40.042H193.82L217.465,87.593z M200.233,87.593    l-23.525,64.001h-65.99c4.312-12.36,8.254-25.822,8.254-40.042c0-7.908-0.478-15.917-1.426-23.958L200.233,87.593z     M98.532,119.594c-26.466,0-48-21.534-48-48c0-26.468,21.534-48,48-48c26.468,0,48,21.532,48,48H98.72    c2.71,12.863,4.253,26.204,4.253,39.958c0,2.55-0.514,5.074-0.802,7.61C100.947,119.269,99.785,119.594,98.532,119.594z     M186.532,278.154h-16c-41.208,0-72-41.477-72-78.561c0-8.926,1.558-17.867,4.766-26.973c0.532-1.642,1.181-3.358,1.766-5.027    h65.765l-30.603,83.257c4.273,3.381,9.01,5.95,14.014,7.885l33.672-91.142h64.088c0.633,1.802,1.29,3.538,1.903,5.424    c3.073,8.709,4.63,17.65,4.63,26.576C258.532,239.975,223.541,278.154,186.532,278.154z" data-original="#000000" class="active-path" data-old_color="#000000" fill="#FFFFFF"/>
	</g>
</g></g> </svg>
